<?xml version="1.0" encoding="utf-8"?>
<!-- Generator: Adobe Illustrator 26.2.1, SVG Export Plug-In . SVG Version: 6.00 Build 0)  -->
<svg version="1.1" id="デザイン" xmlns="http://www.w3.org/2000/svg" xmlns:xlink="http://www.w3.org/1999/xlink" x="0px"
	 y="0px" viewBox="0 0 919.7 122.4" style="enable-background:new 0 0 919.7 122.4;" xml:space="preserve">
<style type="text/css">
	.st0{fill:#F15B40;}
	.st1{fill:#6266AF;}
	.st2{fill:#F2EA00;}
	.st3{fill:#00AE6C;}
	.st4{fill:#ED1C24;}
	.st5{fill:#443322;}
	.st6{font-family:'Philosopher-Regular';}
	.st7{font-size:105.4768px;}
</style>
<g>
	<path class="st0" d="M83.9,115.7c-0.6,0.3-1.2,0.7-1.7,1c-0.3,0.1-0.5,0.1-0.8,0.1c-0.2,0.5-0.3,1-0.5,1.5
		c-0.2-0.2-0.3-0.3-0.4-0.3c-0.4,0.1-0.7,0.1-1,0.2c-0.2-0.4-0.3-0.7-0.5-1.1l-0.2,0.1c-0.1,0.3-0.2,0.7-0.3,0.9
		c-0.6,0.3-1.2,0.7-1.7,0.9l-0.1,0.3c0,0.1,0,0.3,0,0.4c-0.4-0.1-0.9-0.2-1.3-0.3c-0.9-0.1-1.9,0.1-2.7-0.1
		c-0.8-0.2-1.5-0.8-2.2-1.2c-0.3-0.2-0.5-0.3-0.8-0.5c-0.1-0.4-0.1-0.9-0.2-1.3c-0.3-0.2-0.5-0.3-0.7-0.4c0.4-1-0.3-2.8-1.5-3.6
		c-0.1-0.6-0.2-1.3-0.2-1.9c0-0.5,0-1,0-1.5c-0.3-0.1-0.5-0.1-0.8-0.1c-0.2,0.6-0.5,1.1-0.7,1.6h0.1c-0.8,1-1.6,2.1-2.5,3.2
		c-0.2-0.3-0.2-0.4-0.4-0.6c-0.1,0.2-0.2,0.4-0.2,0.6c-0.2,0-0.5,0.1-0.9,0.1c0.3,0.2,0.5,0.2,0.6,0.3c0.2,0.1,0.3,0.3,0.6,0.5
		c-0.6,0.3-1.1,0.6-1.5,0.8c-0.3,0.3-0.6,0.5-0.9,0.7c0-0.2,0.1-0.4,0.1-0.7c-0.5,0-0.8,0-1.2,0c-0.1,0.4-0.2,0.8-0.2,1.1
		c-0.5,0.7-1.1,0.8-1.8,0.7c-0.4-0.1-0.9,0-1.3,0.1c-0.8,0.2-1.5,0.4-2.4,0.7c-0.2,0.4-0.2,1.4-1.3,1.6c-0.1-0.2-0.2-0.4-0.3-0.7
		c-0.8,0.7-0.8,0.7-2.4,0.7c-0.2,0.1-0.4,0.3-0.6,0.4v-0.2c-0.9,0.2-1.8,0.4-2.7,0.7c-0.2-0.1-0.5-0.2-0.7-0.3V120v-0.1
		c-1.6-0.7-3.2-1.4-4.8-2.1l-0.1,0.2c-0.1-0.2-0.2-0.4-0.3-0.6c-0.5-0.1-0.8-0.2-1.1-0.3c-0.8-1.2-1.5-1.6-2.9-1.7
		c-0.7-1.6-1.8-2.9-2.9-4.3c-0.2-0.6-0.5-1.3-0.7-1.8c-0.5-0.8-0.9-1.5-1.3-2.2c0-0.5,0.1-1,0.1-1.6c-0.3,0-0.5,0-0.9,0
		c0.1-0.5,0.1-0.9,0.2-1.4c-0.3-0.2-0.6-0.3-0.9-0.4c0.1-0.3,0.2-0.5,0.3-0.8c0.3-0.1,0.5-0.2,1-0.3c-0.4-0.5-0.7-1-1-1.5l-0.2,0.1
		c0-0.4,0.1-0.9,0.1-1.4c-0.1-0.2-0.3-0.4-0.5-0.6c0.1-0.5,0.1-0.9,0.2-1.3c0.2-0.1,0.5-0.1,0.9-0.3c-0.3-0.2-0.5-0.4-0.6-0.5
		c0-0.3,0-0.6,0-1c0.5-0.3,0.9-0.7,1.4-1c0.2-0.8,0.3-1.7,0.5-2.7c0.4,0.3,0.6,0.5,0.8,0.8c0.1-0.1,0.3-0.3,0.5-0.6
		c-0.3-0.3-0.7-0.6-1-1c0.5-0.3,0.8-0.6,1.3-0.9c-0.3-0.4-0.6-0.7-0.8-1c1.1-1.2,2.1-2.5,3.2-3.7c1.1,0.2,1.5-0.5,1.8-1.5
		c0.5-0.1,1-0.2,1.5-0.3v0.1c0.7-0.3,1.3-0.6,2.1-1c0.7,0.2,1.5,0.1,2-0.7c0.7,0.1,1.3,0.2,1.9,0.3c0.1,0,0.3,0.1,0.4,0
		c0.8-0.2,0.8-0.2,1.2,0.4c1.1,0.2,2.1,0.3,3.2,0.5l0.2-0.3c0.5,0.5,1.1,1,1.6,1.5c0.5,0.4,1.1,0.8,1.9,0.7c0-0.3,0-0.6,0.1-0.8
		c-0.3-0.1-0.5-0.2-0.8-0.3c-0.1-0.3-0.1-0.5-0.2-0.9c-0.2-0.1-0.5-0.1-0.6-0.2c-0.5-0.6-1-1.1-1.5-1.6L50.9,82
		c-0.3-1-0.7-2.1-1-3.2c0.1-0.2,0.2-0.4,0.3-0.6c-0.1-0.6-0.3-1.3-0.4-1.9c0.2-0.2,0.3-0.5,0.5-0.7c0.2,0,0.3,0,0.5,0
		c0.5-0.7,1-1.4,1.6-2.2c0.3,0,0.5-0.1,0.8-0.1c0.5-1,1-1.9,1.5-2.9c0.4-0.3,0.8-0.6,1.2-0.9l0,0c0.6-0.4,1.3-0.8,1.9-1.4
		c0.5-0.5,0.8-1.2,1.2-1.8c0.5-0.3,0.9-0.5,1.4-0.8c0.8-0.4,1.6-0.8,2.3-1.2c0.7-0.4,1.3-0.8,2-1.2l0.3-0.2c0.8-0.2,1.5-0.5,2.2-1.1
		c1.2-1,2.8-1.2,4.5-1.2c1.4,0.1,2.9-0.2,4.3,0c1.8,0.2,3.6,0.6,5.3,1.1c0.7,0.2,1.3,0.8,2.1,1.3c0.1,0,0.4,0.1,0.8,0.1
		c0.2,0.2,0.4,0.5,0.6,0.7c0.2,0.1,0.5,0.1,0.7,0.2c1.4,2.2,1.4,2.2,2.6,2.5c1.8,1.3,3.4,2.5,4.9,3.6c0.8,0.8,1.5,1.4,2.2,2.1
		c0.8,0.8,1.5,1.7,1.9,2.9c0.1,0.3,0.4,0.6,0.6,0.8c0.5,0.6,0.4,1.3,0.2,1.9c-0.2,0.7-0.5,1.4-0.7,2.2c-0.2,0.7-0.3,1.5-0.5,2.2
		c-0.5,0.1-0.8,0.1-1.2,0.1c0,0.3-0.1,0.5-0.1,0.8L95.3,83c-1.1,0.9-2.1,1.8-3.2,2.7c0.3,0.9,1.1,0.1,1.6,0.3
		c0.2-0.2,0.3-0.3,0.4-0.4c0.7-0.1,1.2-0.2,1.6-0.3c0.6,0,1.1,0.2,1.5,0.1c1.3-0.4,2.5-0.1,3.8,0.3c0.3-0.1,0.6-0.2,1-0.4
		c0.4,0.3,0.9,0.7,1.4,1.1c0,0.3-0.1,0.7-0.2,1.2c0.3-0.2,0.4-0.2,0.4-0.2c0.3,0.4,0.5,0.8,0.8,1.2l0,0c0.4,0,0.7,0,0.9,0
		c0.6,0.6,1,1,1.4,1.4l-0.1,0.1c0.5,0.5,1.1,1.1,1.6,1.6l-0.1,0.1c0.4,0.6,0.8,1.2,1.1,1.8c0.3,0.7,0.7,1.5,0.8,2.2
		c0.1,1,0.6,1.7,1.1,2.2c0.2,2.3,0.3,4.4,0.5,6.5h0.2c-0.1,0.2-0.2,0.4-0.3,0.7h0.1c-0.4,2.9-0.8,5.7-1.3,8.6l-0.2-0.1
		c-0.2,0.3-0.4,0.7-0.6,1c0,0.3,0,0.6,0,0.8l-0.2,0.1c-0.6,0.5-1.2,1-1.8,1.5l0.1,0.1c-0.3,0-0.7,0.1-1,0.1
		c-0.6,0.4-1.2,0.8-1.8,1.2v0.1c-0.4,0.3-0.7,0.7-1.1,1c-0.2,0.2-0.4,0.2-0.7,0.3c-0.3-0.2-0.6-0.4-0.8-0.6c-0.9,0.5-1.7,1-2.3,1.4
		c-0.4-0.1-0.8-0.2-1.1-0.3c-0.4,0.2-0.8,0.4-1.1,0.5c-0.4-0.4-0.7-0.7-1-1l-0.2,0.1c0.1,0.4,0.3,0.8,0.4,1.3
		c-0.4,0.1-0.7,0.1-1,0.2c-0.2,0.1-0.3,0.2-0.5,0.4c-1.1-0.4-2.1-0.8-3.2-1.1c-0.5-0.5-1.1-1-1.7-1.5c0-0.2,0.1-0.5,0.2-0.8
		c-0.5-0.3-1-0.6-1.5-0.8l0.1-0.2c0.6,0,1.2,0,1.9,0c-0.8-0.5-1.5-0.9-2.2-1.3l0.1-0.1c-0.3-0.1-0.6-0.1-0.8-0.2
		c-0.9-0.7-0.9-1.4-0.6-2.3c0.3-0.3,0.5-0.5,0.9-0.9c-0.4-0.3-0.7-0.6-1.1-0.9c0.1-0.2,0.3-0.3,0.4-0.4c0-1,0-1.8-0.1-2.8
		c-0.2,0-0.5-0.1-0.5-0.1c-0.2-0.5-0.3-0.9-0.4-1.2V107c0-0.2,0-0.5,0-0.7c-0.1-0.9-0.2-1.7-0.3-2.6c0.4-1.3,0.4-2.5-0.4-3.7
		c0-0.8,0.1-1.6-0.1-2.3c-0.3-1.3,0-2.3,0.5-3.4c0.2-0.5,0.3-1.1,0.4-1.7c0.1-0.3,0.2-0.6,0.4-0.7c0.6-0.4,0.7-0.9,0.7-1.5
		c-0.4,0-0.8,0-1.2,0l0.1,0.2c-0.4,0.4-0.9,0.9-1.4,1.4c-0.1,0.7-2.5,2.1-4.2,2.1c-0.2,0.1-0.4,0.3-0.5,0.5
		c-1.2-0.2-2.4-0.4-3.7-0.5c-0.9,0.5-2,0.4-3.1-0.1c-0.3,0.2-0.5,0.4-0.8,0.6C73,95,72.8,95,72.5,94.9c-0.2-0.2-0.5-0.5-0.7-0.7
		c-0.4,0.1-0.7,0.3-1.1,0.4c0,0.2-0.1,0.3-0.1,0.4s0,0.3-0.1,0.5c-0.6-0.1-1.1-0.3-1.6-0.4v-0.2c-0.3,0.1-0.5,0.2-0.6,0.3
		c-0.9-0.3-1.7-0.6-2.5-0.8l-0.2-0.2l0,0l0,0c-0.2-0.1-0.4-0.2-0.7-0.3c-0.1,0.1-0.3,0.3-0.3,0.3c-0.3-0.1-0.5-0.2-0.7-0.3l0,0
		c-1.9-2.1-3.8-4.2-5.8-6.4c-0.2-0.1-0.5-0.2-0.9-0.4c-0.1,0.1-0.3,0.2-0.5,0.2c-0.9-0.6-1.7-1.1-2.8-0.8c-0.1-0.1-0.1-0.2-0.2-0.4
		l-0.2,0.2l0.3,0.2c-0.1,0.1-0.1,0.2-0.3,0.4c0.4-0.1,0.6-0.1,0.9-0.1c0.1-0.1,0.2-0.2,0.3-0.2c0.3,0.3,0.5,0.7,0.8,1
		c-0.1,0.1-0.2,0.2-0.4,0.3c0.2,0.1,0.4,0.2,0.5,0.2c0.5,0.8,0.9,1.4,1.3,2.1c0.3,0.1,0.7,0.2,1.2,0.3c0.1,0.2,0.1,0.4,0.2,0.7
		c1,0.1,1.6,0.9,2.1,1.6c0.4,0.6,0.7,1.2,0.9,1.6c1.1,0.6,1.9,1,2.7,1.4c-0.1,0.2-0.2,0.4-0.4,0.6h0.2c0,0.5,0.1,1,0.1,1.3
		c0.3,0.6,0.5,1,0.7,1.5c-0.4,0.2-0.7,0.3-1,0.5c0.3,0.7,0.7,1.2,1,1.9c-0.3,0.9-0.9,2,0.3,3c0.1-0.1,0.2-0.2,0.3-0.4
		c0.1,0.3,0.1,0.5,0.2,0.8c0.3-0.1,0.5-0.1,0.7-0.1c0-0.4-0.1-0.7-0.1-0.8c0.3-0.3,0.6-0.5,0.9-0.8c-0.3-0.3-0.4-0.4-0.5-0.6
		c-0.3-0.9-0.1-1.6,0.4-2.3c0.2-0.2,0.2-0.6,0.3-0.9c0-0.2,0-0.5,0-0.9c1.2-0.4,2.3-0.8,3.4-1.2c1.2-0.4,2.3-0.8,3.9-1.3
		c0.6,0,1.5,0.1,2.5,0.1c1.2,0,2.4,0,3,1.4c-0.2,1,0.9,0.8,1.5,1.2c0,0.4,0,0.7,0,1c0.4,0.5,0.7,0.9,1.1,1.3c0,0.3,0,0.6,0,0.9h0.1
		c0.2,0.4,0.4,0.8,0.6,1.3c0.3,0.1,0.6,0.2,0.9,0.3l-0.1,0.1c0.2,0.3,0.5,0.6,0.7,0.9c0.1,0.3,0.1,0.6,0.2,0.9
		c0.1,0.5,0.3,1,0.3,1.5c0.1,0.5,0,1.1,0,1.6c-0.3-0.1-0.6-0.1-0.9-0.1l-0.1,0.2c0.3,0.3,0.5,0.6,0.8,0.9c-0.1,0.3-0.3,0.7-0.4,1
		c0,0.3,0.1,0.7,0.1,1l-0.3-0.1c-0.2,0.4-0.4,0.8-0.5,1.2c-0.1,0.5-0.2,1-0.2,1.5C84,114.9,84,115.3,83.9,115.7z"/>
	<path class="st1" d="M124.4,96c0.1-0.1,0.2-0.2,0.4-0.4c-0.5-0.2-0.9-0.3-1.3-0.5c0-0.3-0.1-0.6-0.1-1c-0.2-0.2-0.4-0.4-0.8-0.8
		c-0.2,0.3-0.4,0.5-0.6,0.8c-0.6-0.5-1-0.9-1.4-1.3l0.1-0.1c-0.2-0.4-0.4-0.8-0.6-1.4c-0.3,0.5-0.5,0.7-0.7,1
		c0.1,0.2,0.3,0.5,0.4,0.8c-1.3,0.2-1.3-1.2-2.1-1.3c-0.1-0.4-0.1-0.7-0.2-1.1c-0.3,0.3-0.5,0.4-0.7,0.6l-0.2-0.1
		c0.2-0.5,0.4-1.1,0.6-1.6c-1-0.6-2.7,0.1-2.6-1.9c-0.4,0-0.8-0.1-1.1-0.1c-0.6-0.8-1.2-1.5-1.9-2.3c0.2-0.1,0.4-0.2,0.6-0.3
		c0.2-0.9-0.2-1.5-1.5-1.7c-0.2-0.2-0.4-0.4-0.5-0.6c0.3-0.4,0.6-0.7,0.9-1.1c-0.3-0.5-0.4-1.1-0.8-1.5c-1-0.9-0.9-2.2-0.8-3.3
		c0.1-1,0.2-1.9-0.1-2.9c-0.4-1.2,0.1-2.4,0.3-3.5c0.2-0.9,0.4-1.8,0.7-2.6c0.1-0.4,0.3-0.8,0.6-1.3c-0.1-0.7,0-1.5,0.8-2.2
		c0.2-0.2,0.3-0.6,0.4-0.9c0.1-0.3,0.2-0.7,0.3-1.1c-0.1-0.1-0.3-0.3-0.5-0.5c0.4-0.7,0.7-1.3,1.2-2.1c0.5-0.2,1.2-0.3,1.9-0.6
		c0.2-0.4,0.4-0.8,0.6-1.2c-0.4-0.5-0.1-1.5,0.8-1.8c0.4-0.2,0.7-0.3,1-0.5c0-0.9,1.5-3,2.5-3.5c0.2,0.1,0.4,0.2,0.8,0.4
		c0.2-0.8,0.4-1.6,0.6-2.4c2-1.2,3.7-3,6.3-2.8c0.6,0.4,1.3,0.8,2,1.2c0.3-0.1,0.7-0.2,1.2-0.4c0.1,0.3,0.3,0.7,0.4,1.1
		c0.1-0.2,0.2-0.3,0.4-0.7c0.9-0.2,2-0.3,3.1-0.5c0.2,0.3,0.4,0.6,0.6,1c0.6,0.1,1.3,0.3,2,0.5c0.1,0.3,0.1,0.5,0.2,0.9
		c0.7,0.1,1.4,0.6,2.1-0.2c0.2,0.8,0.8,1,1.5,1.2c0.5,0.1,0.9,0.3,1.3,0.5c0.7,0.3,1.4,0.5,2,0.9c0.7,0.6,1.2,1.5,1.9,2.1
		c1.3,1,1.6,2.7,2.6,3.6c0.7,1.6,1,3,0.7,4.2c0.1,0.7,0.2,1.2,0.3,1.7h-0.2c0.2,0.2,0.4,0.4,0.7,0.7c-0.1,0.5-0.3,1-0.5,1.6
		c0.2,0.2,0.5,0.5,0.8,0.8c0,0.4-0.1,0.8-0.1,1.3c0.1,0.2,0.3,0.3,0.6,0.7c-0.1,0.5-0.3,1-0.5,1.6c0.1,1.5-0.1,3-0.5,4.3
		c-0.5,0.6-0.9,1-1.3,1.4l-0.1-0.2c-0.5,1.6-0.8,2.1-2.2,2c0.1,0.6,0.3,1.2,0.5,2c-0.4,0.1-0.6,0.1-1,0.2c-0.1,0.8-0.2,1.7-0.4,2.5
		l-0.3-0.1c-0.9,1.2-1.9,2.4-2.8,3.6l0.2,0.1c-0.1,0.5-0.2,0.9-0.3,1.4c-0.5,0-0.7,0.1-1.2,0.1c-0.3,0.5-0.6,1.2-1,1.8
		c-0.1,0.2-0.3,0.4-0.4,0.5c-0.5,0.4-1,0.8-1.5,1.2c-0.2,0.1-0.4,0.3-0.6,0.4c-0.1,1.1-0.9,1.4-2,1.2c-0.6,0.2-1.3,0.5-1.8,0.7
		c-0.8,1-1.9,0.9-3,1.4c0,0.1-0.2,0.2-0.4,0.4c-0.2-0.1-0.4-0.2-0.6-0.3c-0.2,0.2-0.4,0.4-0.5,0.6c-1.3-0.3-2.7-0.7-4,0h-0.3v-0.1
		v0.1C125.1,96.4,124.7,96.2,124.4,96z M121.8,50.5L121.8,50.5L121.8,50.5z"/>
	<path class="st2" d="M45.1,47.4c-0.6-0.6-1.2-1.2-1.9-1.9c-0.1-1-0.2-1-1.3-1.2c-0.2,0-0.3-0.1-0.4-0.2c-0.4-0.5-0.7-0.9-1.2-1.5
		c-0.1-0.5-0.3-1.1-0.4-1.5c-0.7-0.7-1.1-1.3-1.6-1.8h0.1c-0.2-0.4-0.4-0.8-0.6-1.3c-0.1-0.1-0.2-0.2-0.2-0.4c0-1.2-0.7-2.1-1.2-3.1
		c-0.4-0.7-0.5-1.7-0.7-2.5c-0.3-0.3-0.5-0.6-0.8-0.9c0.1-0.2,0.2-0.4,0.3-0.6c-0.1-0.3-0.2-0.7-0.3-1.1h0.2c0-0.7,0-1.4,0-2.2
		c-0.2,0-0.3,0-0.7,0.1c0.3-1,0.6-2,0.9-2.9c0.1-1.5-0.4-3.2,1.1-4.3c-0.1-0.3-0.1-0.6-0.2-1c-0.2,0.4-0.3,0.7-0.5,1L35.5,20
		c0-0.8,0.4-1.5,1-2c0.7-0.6,1.2-1.2,1.3-2.2c0.9-0.5,1.8-1,2.7-1.6v0.1c1.3-0.7,2.6-1.3,3.9-2c0.1-0.2,0.2-0.4,0.4-0.6
		c0.5-0.1,1.1-0.2,1.7-0.4c1.1-0.3,2.2-0.6,3.4-0.9c0.5-0.2,1-0.1,1.5,0.2c0.3,0.2,0.8,0.2,1.2,0.3c0.2-0.3,0.4-0.5,0.6-0.9
		c2-0.3,4-0.2,6.2,0.6c0,0.1,0.1,0.3,0.2,0.6c0.3-0.1,0.5-0.1,0.7-0.1c1.1,0.3,1.6,1.7,2.8,1.5c0.5,0.5,0.9,0.9,1.5,1.5
		c0,0.2-0.1,0.7-0.1,1.2c0.6,0,1.2,0.1,1.8,0.1c0.5,1.3,1.1,2.3,2.1,3c0.2,0.1,0.2,0.7,0.2,1s-0.2,0.5-0.3,0.8
		c0.3,0.2,0.6,0.4,0.8,0.6c0,0.2,0,0.5,0.1,0.8l0.3-0.2c0.2,0.4,0.3,0.8,0.5,1.2c0.1,0.4,0.2,0.7,0.4,1c0.1,0.5,0.2,0.9,0.3,1.4
		c1.3,0.4,0.4,2,1.5,2.5c0.2,1.4,0.4,2.7,0.6,4.1H73c-0.1,0.6-0.2,1.2-0.4,1.8c0,0.6,0,1.1,0,1.6c0,0.3-0.1,0.6,0,0.8
		c0.6,1.6,0.2,3.1-0.3,4.7c-0.3,1.1-0.6,2.2-0.9,3.3c-0.2,0.7-0.4,1.4-0.6,2c-0.7,0.3-1.1,0.9-1.3,1.7c-0.1,0.2-0.3,0.5-0.5,0.7l0,0
		c-0.2,0-0.4,0-0.6,0c0,0.3,0,0.6,0,1c-0.3,0.1-0.6,0.1-1,0.2c-0.5,0.8-0.1,2.6-1.9,2.4c-0.2,0.2-0.4,0.4-0.5,0.5
		c-1,0.3-1.9,0.5-2.8,0.8V53h0.1c0,0.1,0.1,0.1,0,0.3c-0.2-0.1-0.5-0.3-0.9-0.5c-0.4,0.1-1,0.3-1.5,0.4c-0.2,0.3-0.3,0.6-0.4,0.9
		c-0.4,0-0.8,0-1.1,0c-0.3-0.4-0.6-0.6-0.8-0.8c-0.6,0.1-1,0.2-1.4,0.3c-0.2-0.6-0.3-1-0.4-1.5h-0.2c0-0.3,0-0.5,0-0.7
		c-1.7-0.6-3.3-1.2-4.9-1.7c-0.8-0.3-1.5-0.5-2.2-0.8c-0.5-0.2-0.8-0.5-1.2-0.9c-0.5-0.4-1-1.1-1.8-0.8L45.1,47.4z"/>
	<path class="st3" d="M114.3,8.1c1.2,1.3,2.3,2.6,3.5,3.9c-0.2,1,0.7,1.5,0.9,2.3c0.3,0.8,0.5,1.5,0.8,2.3c-0.1,0.4-0.1,0.8-0.2,1.4
		c-0.2,0-0.5,0.1-0.8,0.2l-0.1,0.2c0.7,0.3,1.7,0.4,1.8,1.6c-0.2,0-0.4,0.1-0.7,0.1c0.1,0.4,0.2,0.9,0.3,1.3
		c0.2,0.2,0.5,0.5,0.7,0.7c-0.6,1.6-0.6,1.6,0.7,2.7c-0.2,0.5-0.4,1-0.7,1.5h-0.1c-0.2,0.5-0.5,0.9-0.7,1.4c0.2,0.2,0.3,0.3,0.5,0.4
		c-0.2,0.3-0.5,0.5-0.7,0.8c0.2,0.3,0.3,0.6,0.4,0.9c-0.1,0.2-0.3,0.5-0.4,0.8c-1.5,0.6-1.2,1.8-1.1,3.2c-0.4,0.2-0.8,0.3-1.4,0.5
		c0,0.3-0.1,0.7-0.1,1.1c-1,0-1.9,0-2.9,0.1c-0.1,0.1-0.2,0.3-0.4,0.5c0.8,0.1,1.5,0.2,2.2,0.3c0,0.7-0.1,0.7-1.1,1.2
		c-0.2-0.1-0.4-0.1-0.6-0.2c-0.6,0.2-1.2,0.5-1.9,0.8c0.2,0.4,0.3,0.9,0.6,1.4c0,0.1-0.1,0.3-0.2,0.6c-0.7,0.6-1.5,1.2-2.2,1.8
		c-0.5-0.3-0.7,0-0.8,0.4l-0.2,0.2c-0.4-0.1-0.8-0.2-1.3-0.4c-0.3,0.3-0.6,0.6-0.9,0.9v-0.1c-0.4,0.2-0.9,0.4-1.3,0.6
		c0.1,0.3,0.2,0.5,0.3,0.9c-0.6-0.1-1-0.2-1.4-0.3l0,0l0,0c-0.2,0.2-0.5,0.5-0.8,0.5c-0.8,0.1-1.5,0-2.3,0c-0.1,0-0.3,0.1-0.5,0.1
		c0.5,0.2,0.9,0.4,1.4,0.7c-0.6,0.4-0.9,0.6-1.2,0.8c-0.1-0.2-0.1-0.3-0.2-0.5c-0.3,0.2-0.6,0.4-1,0.7c-0.1-0.4-0.2-0.7-0.3-0.9
		c-0.7,0.2-1.2,0.4-1.7,0.6c-0.3,0.2-0.6,0.5-0.8,0.7c-0.7-0.3-1.3-0.5-2.1-0.9c-0.2,0.1-0.5,0.3-0.8,0.4c-0.2-0.3-0.4-0.6-0.6-0.8
		c-1.4,0.4-1.4,0.4-2.1-0.8c-0.1-0.2-0.4-0.4-0.6-0.6c0-0.1,0.1-0.3,0.1-0.4c0.3-0.1,0.6-0.2,1.1-0.4c-0.3-0.3-0.5-0.4-0.7-0.6
		c-0.4,0.3-0.8,0.5-1.3,0.8c-0.4-1-2.1-0.8-1.8-2.2c-0.6-0.5-1.1-1-1.7-1.4c-0.1-0.1-0.3,0-0.4-0.1c-0.3-0.6-0.6-1.2-0.8-1.8
		c-0.1-1.1-0.7-2.1,0-3c-0.1-1-0.1-1.8-0.3-2.6c-0.1-0.6-0.5-1.1-0.7-1.7c0.2-0.2,0.3-0.5,0.4-0.6c0-0.5-0.1-1-0.1-1.5
		c-0.2-0.2-0.5-0.4-0.7-0.6c0.6-1,1.2-1.9,1.8-2.8C86,25,86,24.7,85.9,24.5c0.2-0.6,0.3-1,0.5-1.4c-0.2-0.3-0.3-0.5-0.4-0.8
		c0.2-0.5,0.3-1,0.5-1.5c-0.2-0.2-0.4-0.4-0.6-0.6c0-0.2,0.1-0.5,0.1-0.7l0.2,0.1c0.2-0.2,0.4-0.4,0.5-0.6c0.2-0.6,0.4-1.1,1.3-1.1
		c0-0.6,0-1.2,0-1.9c0.3-0.1,0.7-0.1,1-0.2c0.6-1.4,1.2-2.8,1.8-4.2c0.9-1,1.8-1.9,2.8-3.1c1.1-0.8,2.5-1.9,3.7-2.8
		c1.7-0.5,3.3-1.1,4.9-1.3c1.3-0.2,2.7-0.5,4,0.4c0.8,0.1,1.6,0.3,2.3,0.4c0.8,0.2,1.5,0.4,2.3,0.6c0,0.1,0,0.3,0.1,0.4
		c1.1,0.5,1.8,1.5,3,1.6C114,7.7,114.1,7.9,114.3,8.1z"/>
	<path class="st4" d="M0,71.4c0.2-0.6,0.5-1.1,0.7-1.7c0.2-0.4,0.4-1,0.3-1.4c-0.4-1.2,0.3-2.2,0.4-3.3l0.1-0.1
		c0.5-0.2,1-0.3,1.5-0.5c-0.3-0.5-0.4-0.8-0.6-1.1c0.3-0.4,0.5-0.8,0.9-1.4c-0.1-0.3-0.3-0.6-0.4-1.1c0.7-0.5,1.3-1.1,2-1.7
		c0.2,0.1,0.5,0.1,0.9,0.2c0-0.4,0-0.7-0.1-1.1c0.4-0.3,0.8-0.7,1.2-1.1c0.7-0.6,1.4-1.2,2.1-1.8c0.8-0.6,1.6-0.7,2.6-0.1
		c0.1-0.3,0.1-0.6,0.1-0.9c0.7-0.2,1.5-0.3,2.2-0.5c0.3,0,0.6,0.1,0.9,0.1c0.8,0.1,1.6,0.1,2.4,0.2c0.7,0.1,1.3,0.3,2,0.5l0.1-0.2
		c0.2,0.2,0.4,0.4,0.5,0.5l0.1-0.2c1.2,0.3,2.3,0.7,3.6,1.1c0.1-0.1,0.4-0.2,0.7-0.4c0.2,0.3,0.5,0.5,0.8,0.9
		c0.9,0.1,1.9,0.1,2.8,0.2c0.5,0.3,1,0.7,1.5,1c1.3,0.7,2.3,1.8,3.4,2.9c1.4,1.3,2.5,2.9,3.7,4.4c0.5,0.6,0.8,1.3,1.2,1.9
		c0.1,0.3,0.1,0.6,0.1,0.9c1.2,2.2,1.9,4.5,2.2,6.9c-0.1,0.3-0.2,0.6-0.3,0.8s-0.2,0.6-0.3,0.7c0.1,1.7-0.2,3.2-1.5,4.3
		c-0.4,0.3-0.5,0.8-0.7,1.4c-0.2,0.1-0.4,0.3-0.7,0.4c-0.2,0.5-0.3,1-0.5,1.4c-0.8,0.6-1.6,1.2-2.4,1.8c-0.2,0.1-0.3,0.4-0.4,0.6
		c-0.4,0.2-0.8,0.4-1.2,0.7c-0.3,0.1-0.7,0.1-0.9,0.3c-0.2,0.2-0.8,0.2-0.4,0.8c-0.9,0.5-1.8,0.9-2.7,1.4l-0.2-0.3
		c-1.2,0-2.4,0.1-3.6,0.1l0.1,0.2c-0.4,0.2-0.9,0.5-1.3,0.7s-1,0.2-1,0.8c-0.4,0-0.8,0-1.1,0c-0.4-0.1-0.7-0.3-1-0.3
		c-1.2-0.2-2.3-0.3-3.5-0.5c-1.1-0.1-2-0.5-2.6-1.6c-1,0.6-1.6,0-2.1-0.8c0-0.2,0.1-0.4,0.1-0.7c-0.7-0.2-1.3-0.4-1.9-0.6
		c-0.2-0.2-0.3-0.4-0.4-0.7c-0.3,0.1-0.5,0.3-0.7,0.4c-0.2,0-0.5-0.1-0.7-0.1c0.1-0.4,0.2-0.9,0.4-1.4c0.1,0,0.4-0.1,0.6-0.1
		c-0.5-0.3-1-0.7-1.5-1c-0.6-0.3-1.1-0.6-1.7-0.9c0-0.2-0.1-0.5-0.1-0.8l-0.1,0.1c-0.8-1-1.6-2.1-2.5-3.2c-1.1-0.8-1.4-2.2-1.8-3.5
		C1,74.4,1,74.1,1,73.8c-0.6-0.6-0.6-1.3-0.1-2c-0.1-0.3-0.2-0.6-0.3-1C0.4,71.1,0.2,71.2,0,71.4L0,71.4z"/>
	<path class="st0" d="M120.7,0.2c0.1,0.2,0.3,0.3,0.4,0.5c0,0.3,0.1,0.6,0.1,0.9l0.2,0.1c-0.4,0.4-0.8,0.8-1.2,1.1l-0.3-0.1
		c0,0.9-0.1,1.8-0.1,2.7l0.3,0.1c-0.3,0.3-0.6,0.6-1,1C119,6,119,5.8,118.9,5.6h-0.2c0,0.4,0.1,0.9,0.1,1.4
		c-0.8,1.5-0.8,1.6-1.7,1.2c-0.3-0.5-0.5-0.9-0.8-1.4c-0.1-0.6-0.2-1.2-0.2-1.9h-0.3c0.2-1,0.5-2,0.7-3c0.5-0.1,0.9-0.3,1.4-0.4
		C118.5,0.6,119.2-0.4,120.7,0.2z"/>
	<path class="st0" d="M148.1,50.5c0.8-0.8,1.9-1,2.9-1.5c0.1,0.3,0,0.7,0.2,1c0.6,0.7,0.6,1.4,0.4,2.2c-0.1,0.8-0.2,1.6-0.4,2.4
		c-0.5,0.4-1.1,0.9-1.7,1.4c-0.5-0.4-0.9-0.7-1.4-1.1C146.8,54.3,146.5,51.3,148.1,50.5z"/>
	<path class="st0" d="M68.8,48.2c0.3,0,0.6,0.1,0.9,0.1l-0.1,0.3C69.3,48.6,68.9,48.8,68.8,48.2L68.8,48.2z"/>
	<path class="st0" d="M85.9,18.3c0.1,0,0.2,0,0.3,0v0.1c-0.1,0-0.2,0-0.4,0L85.9,18.3z"/>
	<path class="st0" d="M64.8,14.9C64.8,14.9,64.8,14.8,64.8,14.9C64.8,14.8,64.8,14.9,64.8,14.9z"/>
	<path class="st0" d="M64,93.9L64,93.9L64,93.9z"/>
</g>
<text transform="matrix(1 0 0 1 196.248 97.7985)" class="st5 st6 st7">KOMUGI CAFE</text>
</svg>
